<svg width="84" height="84" viewBox="0 0 84 84" fill="none" xmlns="http://www.w3.org/2000/svg">
<mask id="path-1-inside-1_2658_25937" fill="white">
<path d="M0 0H84V84H0V0Z"/>
</mask>
<path d="M84 84V86H86V84H84ZM0 84V86H5.25V84V82H0V84ZM15.75 84V86H26.25V84V82H15.75V84ZM36.75 84V86H47.25V84V82H36.75V84ZM57.75 84V86H68.25V84V82H57.75V84ZM78.75 84V86H84V84V82H78.75V84ZM84 84H86V78.75H84H82V84H84ZM84 68.25H86V57.75H84H82V68.25H84ZM84 47.25H86V36.75H84H82V47.25H84ZM84 26.25H86V15.75H84H82V26.25H84ZM84 5.25H86V0H84H82V5.25H84ZM84 84V88H88V84H84ZM0 84V88H5.25V84V80H0V84ZM15.75 84V88H26.25V84V80H15.75V84ZM36.75 84V88H47.25V84V80H36.75V84ZM57.75 84V88H68.25V84V80H57.75V84ZM78.75 84V88H84V84V80H78.75V84ZM84 84H88V78.75H84H80V84H84ZM84 68.25H88V57.75H84H80V68.25H84ZM84 47.25H88V36.75H84H80V47.25H84ZM84 26.25H88V15.75H84H80V26.25H84ZM84 5.25H88V0H84H80V5.25H84Z" fill="#B2C7CF" mask="url(#path-1-inside-1_2658_25937)"/>
</svg>
