<svg width="116" height="116" viewBox="0 0 116 116" fill="none" xmlns="http://www.w3.org/2000/svg">
<mask id="path-1-inside-1_2658_25938" fill="white">
<path d="M0 0H116V116H0V0Z"/>
</mask>
<path d="M116 116V118H118V116H116ZM0 116V118H7.25V116V114H0V116ZM21.75 116V118H36.25V116V114H21.75V116ZM50.75 116V118H65.25V116V114H50.75V116ZM79.75 116V118H94.25V116V114H79.75V116ZM108.75 116V118H116V116V114H108.75V116ZM116 116H118V108.75H116H114V116H116ZM116 94.25H118V79.75H116H114V94.25H116ZM116 65.25H118V50.75H116H114V65.25H116ZM116 36.25H118V21.75H116H114V36.25H116ZM116 7.25H118V0H116H114V7.25H116ZM116 116V120H120V116H116ZM0 116V120H7.25V116V112H0V116ZM21.75 116V120H36.25V116V112H21.75V116ZM50.75 116V120H65.25V116V112H50.75V116ZM79.75 116V120H94.25V116V112H79.75V116ZM108.75 116V120H116V116V112H108.75V116ZM116 116H120V108.75H116H112V116H116ZM116 94.25H120V79.75H116H112V94.25H116ZM116 65.25H120V50.75H116H112V65.25H116ZM116 36.25H120V21.75H116H112V36.25H116ZM116 7.25H120V0H116H112V7.25H116Z" fill="#B2C7CF" mask="url(#path-1-inside-1_2658_25938)"/>
</svg>
