<svg width="77" height="77" viewBox="0 0 77 77" fill="none" xmlns="http://www.w3.org/2000/svg">
<path d="M23.3907 58.617L29.8636 64.0943L22.8703 77L16.9355 70.5756L8.19336 69.045L14.9237 56.6251L23.3907 58.617Z" fill="#706E69"/>
<path d="M68.8075 68.749L60.0653 70.2788L54.1298 76.7033L47.278 64.062L53.7162 58.617L62.2294 56.6128L68.8075 68.749Z" fill="#706E69"/>
<path fill-rule="evenodd" clip-rule="evenodd" d="M45.0417 3.45859L52.3525 3.38864L56.4476 9.44559L62.9512 12.7789L63.763 20.0428L67.9742 26.0205L65.3159 32.8301L66.2668 40.0779L60.748 44.8725L58.2219 51.7336L51.1071 53.4125L45.6836 58.3133L38.6019 56.496L31.5218 58.3133L26.0967 53.4125L18.9835 51.7336L16.4551 44.8725L10.9386 40.0779L11.8887 32.8301L9.23117 26.0205L13.4408 20.0428L14.2534 12.7789L20.7578 9.44406L24.8521 3.38864L32.1621 3.45859L38.6027 0L45.0417 3.45859ZM33.1592 22.093L23.9219 24.8152L29.7936 32.4488L29.5292 42.0758L38.6027 38.8486L47.6762 42.0758L47.4125 32.4488L53.2842 24.8152L44.0469 22.093L38.6027 14.1496L33.1592 22.093Z" fill="#706E69"/>
</svg>
