<svg width="29" height="24" viewBox="0 0 29 24" fill="none" xmlns="http://www.w3.org/2000/svg">
<path fill-rule="evenodd" clip-rule="evenodd" d="M13.6148 0.0241459C7.42504 0.456404 3.14 6.36523 4.63403 12.408C4.69247 12.6444 4.72719 12.8221 4.72719 12.8847C4.72719 13.4084 4.15629 13.5584 3.94878 13.0893C3.89738 12.9731 3.88313 12.7943 3.86312 12.0139C3.82066 10.3589 3.66391 9.92795 2.77827 9.03122L2.53063 8.78051L2.67101 9.01393C3.27022 10.0103 3.30879 10.4646 2.89121 11.6073C2.3161 13.1811 2.49822 14.6252 3.39338 15.5888C3.48404 15.6864 3.4686 15.6909 3.27957 15.6218C2.54572 15.3535 2.19328 14.9736 1.87364 14.1061C1.33106 12.6337 0.855491 12.0629 0.0810613 11.9547C-0.0156127 11.9412 -0.030535 11.9589 0.0619546 11.9774C0.267078 12.0184 0.548213 12.2247 0.690224 12.4383C0.902004 12.7569 0.988079 13.1152 1.10533 14.1667C1.2754 15.6919 1.50999 16.393 2.06526 17.0356C2.13446 17.1157 2.17618 17.1747 2.15797 17.1669C1.43282 16.854 0.596593 17.3222 0.367366 18.1695C0.326006 18.3224 0.313159 18.7597 0.347049 18.8612C0.360069 18.9001 0.362386 18.87 0.356369 18.7401C0.320127 17.9578 1.12157 17.4629 1.74959 17.8797C2.3116 18.2528 2.49202 19.5219 2.16236 20.7831C2.13041 20.9053 2.05193 21.1764 1.98793 21.3857C1.49711 22.9903 1.60893 23.6964 2.3929 23.9432C2.64452 24.0224 2.70179 24.0184 2.53123 23.9335C1.88846 23.6135 1.91555 23.0886 2.59175 22.7614C4.12821 22.0179 11.0513 21.4637 16.4246 21.6541C22.3068 21.8625 25.821 22.3503 26.4003 23.0387C26.6417 23.3256 26.4871 23.7176 26.047 23.9341C25.8811 24.0157 25.9312 24.022 26.168 23.9493C27.0033 23.693 27.0934 23.0067 26.5319 21.179C26.0041 19.4614 26.2712 17.9364 27.1317 17.754C27.7396 17.6252 28.2491 18.0897 28.2225 18.7486C28.2157 18.9187 28.2165 18.9248 28.2361 18.8439C28.2685 18.7093 28.2645 18.4169 28.2276 18.2384C28.0509 17.3822 27.2123 16.8629 26.4718 17.1511C26.4535 17.1582 26.4912 17.1024 26.5557 17.027C27.1045 16.3854 27.3387 15.6816 27.5075 14.1667C27.6247 13.1154 27.7108 12.7569 27.9226 12.4383C28.0646 12.2247 28.3457 12.0184 28.5509 11.9774C28.6434 11.9589 28.6284 11.9412 28.5318 11.9547C27.7412 12.0652 27.2645 12.6513 26.7044 14.2012C26.3812 15.0955 25.9391 15.5418 25.1633 15.7568L25.0421 15.7904L25.1339 15.6869C25.316 15.4817 25.3941 15.3829 25.5023 15.2214C26.1231 14.2941 26.2231 13.0826 25.7848 11.7978C25.472 10.881 25.4418 10.7635 25.4418 10.4616C25.4418 10.0271 25.5893 9.60001 25.9418 9.01393L26.0822 8.78051L25.8346 9.03122C24.9513 9.92553 24.7923 10.3615 24.75 12.0053C24.7297 12.7944 24.7155 12.9729 24.664 13.0893C24.4562 13.5592 23.8856 13.4083 23.8856 12.8834C23.8856 12.8195 23.9141 12.6725 23.9629 12.4845C24.6155 9.97014 24.2571 7.2798 22.97 5.03157C21.067 1.70774 17.4246 -0.241911 13.6148 0.0241459ZM15.024 1.45806C16.1694 1.56358 17.3365 1.89896 18.2315 2.37972C21.9201 4.36111 23.6557 8.41679 22.5138 12.3863C21.8997 14.5209 20.2539 16.5489 18.3548 17.5113L18.2669 17.5559L18.3206 17.4131C19.2398 14.9732 18.4583 12.9604 15.9491 11.3048C15.5544 11.0444 15.3531 10.9283 14.5398 10.492C12.9181 9.62208 12.2608 8.89802 12.4458 8.18507L12.4699 8.09217L12.1475 8.10349C11.8314 8.11459 11.4698 8.14101 11.3842 8.15926C11.3605 8.16434 11.4247 8.11945 11.527 8.0595C12.2149 7.6565 12.7881 7.01867 13.1009 6.30789C13.1933 6.09803 13.1934 6.14433 13.1011 6.41164C12.9514 6.84504 12.6151 7.36985 12.351 7.58208C12.2405 7.67091 12.2569 7.6896 12.4347 7.67689C12.6821 7.6592 13.5422 7.4966 14.3156 7.32126C14.4389 7.2933 14.5424 7.27297 14.5455 7.27608C14.5543 7.28483 13.8048 7.52473 13.1739 7.7151C12.3837 7.95351 12.2887 7.99376 12.516 7.99376C13.0705 7.99376 13.844 8.22771 14.2271 8.51128C14.8199 8.94999 14.9196 9.53291 14.5204 10.226C14.4171 10.4053 14.4161 10.4047 14.6695 10.3247C15.0799 10.1953 15.2932 10.0486 15.7795 9.56154C16.2935 9.04672 16.5928 8.9369 17.0657 9.08955C17.6765 9.28665 18.7289 10.5036 19.0073 11.3346C19.0478 11.4555 19.1123 11.4929 19.2567 11.4792C19.6849 11.4384 20.4812 10.9234 20.6406 10.5842C20.6902 10.4785 20.7013 10.4044 20.6652 10.4203C20.2723 10.5933 20.1173 10.581 19.8807 10.3578C19.7932 10.2753 19.7207 10.2264 19.6103 10.1753C19.1913 9.98176 18.8947 9.72231 18.3517 9.07445C17.9603 8.60746 17.8755 8.54066 17.4414 8.35707C17.0725 8.2011 17.0096 8.19318 16.8561 8.28353C16.6686 8.39384 16.6071 8.37916 16.6064 8.22389C16.6062 8.19354 16.5983 8.16391 16.5888 8.15803C16.4966 8.10105 16.6121 8.04041 16.8131 8.04024C17.1287 8.03997 17.2782 8.10242 17.7702 8.44005C17.9621 8.57173 18.2202 8.74843 18.3439 8.83272C18.4675 8.91702 18.6737 9.06477 18.8021 9.16106C19.9987 10.0586 20.2613 10.1809 21.3657 10.3553C22.0045 10.4562 22.1851 10.5243 22.519 10.7904L22.5789 10.8381L22.5414 10.7846C22.4854 10.7049 22.382 10.6168 22.2169 10.508C22.0887 10.4236 22.0355 10.3738 22.0355 10.3383C22.0355 10.32 22.1449 10.2729 22.3234 10.2144C22.4231 10.1818 22.5255 10.1429 22.5511 10.1281L22.5975 10.1013L22.5542 10.1117C21.0793 10.4653 20.3695 10.2497 19.0874 9.05804C18.352 8.3746 18.0369 8.14976 17.5312 7.94748C17.4741 7.92467 17.4508 7.91068 17.4793 7.91642C17.6867 7.95808 18.0345 8.13858 18.5773 8.48614C19.2407 8.91093 19.331 8.9559 19.6743 9.03259C20.457 9.20742 20.8453 9.49568 20.9132 9.95252C20.9365 10.1089 20.9435 10.1115 21.0607 10.009C21.1713 9.91222 21.2154 9.81252 21.2504 9.58032C21.3305 9.04753 21.3466 8.99578 21.4884 8.8131C21.624 8.63856 21.6089 8.5649 21.4062 8.41081C21.2766 8.3123 21.2425 8.23765 21.2213 8.0055C21.173 7.47801 21.148 7.37248 21.0362 7.22431C20.9639 7.12864 20.8272 7.03786 20.6968 6.99905C20.5862 6.96611 20.5804 6.97589 20.6769 7.03249C20.9254 7.17809 21.0088 7.55298 20.8387 7.75937C20.7451 7.8729 20.6025 7.78724 20.0367 7.27764C19.7477 7.01739 19.3953 6.78339 19.2925 6.78339C19.2532 6.78339 19.2499 6.75054 19.2856 6.71485C19.3392 6.66121 19.3293 6.60849 19.2511 6.53215C19.1323 6.4161 19.1073 6.27808 19.1652 6.05717C19.2553 5.71329 19.0154 5.45109 18.3995 5.22039C18.179 5.13781 18.0893 5.13495 18.2579 5.21589C18.6127 5.38619 18.8021 5.56737 18.8021 5.73642C18.8021 5.83353 18.813 5.83424 18.5755 5.72193C18.4671 5.6707 18.2773 5.58851 18.1537 5.53929C17.4527 5.26023 17.2189 5.06083 16.4936 4.12336C15.9412 3.40943 15.5007 3.00102 14.8709 2.61897C14.7151 2.52446 14.6941 2.52818 14.8006 2.63137C15.4282 3.23951 15.471 3.6772 14.9546 4.20703C14.6893 4.47924 14.7279 4.53053 15.227 4.56888L15.4044 4.58251L15.2661 4.58488C14.7443 4.59376 14.3621 4.43916 13.4764 3.86087C12.83 3.43876 12.4521 3.25274 12.1573 3.21143L12.0845 3.20123L12.1623 3.26607C12.5167 3.56145 12.866 4.00196 13.066 4.40588C13.1326 4.5403 13.1392 4.59086 13.0751 4.47504C12.9974 4.33485 12.9164 4.2194 12.8398 4.13989C12.7066 4.00163 11.6328 3.69671 10.9756 3.61056C10.7354 3.57907 10.2769 3.54487 10.2643 3.55751C10.2544 3.56744 10.2501 3.56597 10.4398 3.61829C11.2022 3.82865 11.7187 4.41847 11.425 4.7435C11.2994 4.88249 11.2241 4.90313 10.4159 5.0203C9.70628 5.12318 9.48812 5.1611 9.22218 5.22774C8.11268 5.50579 7.3778 6.08641 6.74436 7.18544C6.56049 7.50443 6.54285 7.55625 6.64834 7.46749C7.17899 7.02099 8.13637 7.3279 8.50571 8.06293C8.87743 8.80274 8.7599 10.1565 8.21259 11.439C8.17362 11.5303 8.1906 11.5197 8.26953 11.4035C8.37238 11.252 8.52959 11.1149 8.65113 11.0706C8.74562 11.0361 8.75738 11.0258 8.79848 10.9418C9.01232 10.5048 9.91007 10.4199 10.6098 10.7705C12.843 11.8896 12.882 15.3898 10.6699 16.1703C7.88137 17.1542 5.1617 12.8285 5.87711 8.54708C6.54119 4.57289 9.82335 1.68139 13.9519 1.43333C14.122 1.42311 14.8194 1.43921 15.024 1.45806ZM13.1422 4.61626C13.1358 4.62259 13.1306 4.6174 13.1306 4.60473C13.1306 4.59205 13.1358 4.58686 13.1422 4.59319C13.1485 4.59954 13.1485 4.60991 13.1422 4.61626ZM12.6072 5.18577C12.6015 5.19151 12.5865 5.19214 12.5741 5.18714C12.5603 5.18162 12.5644 5.17753 12.5845 5.17669C12.6027 5.17595 12.6129 5.18003 12.6072 5.18577ZM12.4736 5.21212C11.7218 5.41578 11.2539 5.63712 10.812 5.9981C10.0653 6.60811 9.63039 7.60053 9.65859 8.62993L9.66651 8.91883L9.56835 9.04852C9.43142 9.22943 9.3562 9.35085 9.22023 9.61047C9.15547 9.7341 9.10234 9.82962 9.10216 9.82274C9.10125 9.7893 9.21967 9.52137 9.35375 9.2536C9.49004 8.98136 9.50191 8.94959 9.49145 8.88538C9.40662 8.36526 9.49989 7.72015 9.74063 7.16174C10.16 6.189 11.075 5.49354 12.2747 5.23569C12.4618 5.19547 12.592 5.18005 12.4736 5.21212ZM10.9087 5.36332C11.0698 5.37359 11.0568 5.3752 10.7185 5.38664C9.31441 5.43418 8.39626 5.75479 7.52833 6.50062L7.3122 6.68634L7.44354 6.54035C8.09536 5.81577 8.94333 5.43954 10.1047 5.35963C10.2464 5.34988 10.733 5.35213 10.9087 5.36332ZM17.9862 5.63724C18.2158 5.74493 18.536 6.0687 18.699 6.358C18.7555 6.45844 18.7527 6.45632 18.5155 6.21834C18.161 5.86261 17.9448 5.71135 17.7909 5.71135C17.7005 5.71135 17.6697 5.7423 17.6848 5.81793C17.6985 5.88654 17.6437 5.847 17.609 5.76326C17.5417 5.60086 17.7559 5.52929 17.9862 5.63724ZM18.2468 6.21651L18.4344 6.3963L18.3845 6.42495C18.3526 6.44326 18.3307 6.473 18.3239 6.50738C18.3143 6.55494 18.3079 6.55991 18.268 6.55045C18.1184 6.51502 18.0203 6.34697 17.9809 6.05866L17.9681 5.96504L18.0137 6.00089C18.0387 6.0206 18.1437 6.11764 18.2468 6.21651ZM15.3828 6.31035C15.4539 6.3221 15.4715 6.35112 15.4075 6.35112C15.1816 6.35112 15.0412 6.54236 15.0427 6.8482C15.0434 7.00714 15.0237 6.99082 14.9802 6.79638C14.9056 6.46292 15.0742 6.25934 15.3828 6.31035ZM17.4954 6.38677C17.7187 6.42564 17.8602 6.55541 17.9046 6.76192C17.9496 6.97119 18.0007 7.01157 18.2821 7.05982C18.586 7.11197 18.5788 7.13115 18.2574 7.12525C17.8569 7.11789 17.7922 7.08146 17.7627 6.84651C17.7346 6.62255 17.6478 6.5324 17.3749 6.4435C17.2944 6.41731 17.2286 6.38969 17.2286 6.38214C17.2286 6.36265 17.3712 6.36514 17.4954 6.38677ZM18.6429 6.68222C18.618 6.69803 18.5081 6.7023 18.5081 6.68746C18.5081 6.68226 18.5295 6.65914 18.5557 6.63613L18.6032 6.59425L18.6342 6.63115C18.6587 6.66025 18.6605 6.67104 18.6429 6.68222ZM16.3813 6.72223C16.5791 6.78571 16.8389 6.91247 17.0384 7.04281C17.2602 7.1878 17.2647 7.19591 17.073 7.10533C16.5442 6.85562 16.0439 6.81032 15.8232 6.9922C15.5563 7.21221 15.6607 7.82371 16.0721 8.44992L16.1757 8.60759L16.0874 8.51249C15.1132 7.46241 15.2921 6.37273 16.3813 6.72223ZM19.7935 7.32721C19.8839 7.36914 19.9895 7.43214 20.0284 7.46718C20.1083 7.53943 20.1233 7.58079 20.0513 7.53078C20.0252 7.51259 19.932 7.46824 19.8443 7.43222C19.6747 7.36257 19.5621 7.28044 19.5172 7.19359L19.4897 7.14038L19.5595 7.19568C19.5979 7.22609 19.7032 7.28528 19.7935 7.32721ZM16.9074 7.77642L17.1309 7.8347L16.9506 7.83251C16.8515 7.8313 16.7257 7.83652 16.671 7.84411C16.561 7.8594 16.5523 7.84121 16.629 7.75601C16.6714 7.70891 16.6397 7.70658 16.9074 7.77642ZM17.1883 7.84968C17.1819 7.85601 17.1715 7.85601 17.1652 7.84968C17.1589 7.84333 17.164 7.83814 17.1767 7.83814C17.1894 7.83814 17.1946 7.84333 17.1883 7.84968ZM17.413 7.90155C17.4067 7.90788 17.3963 7.90788 17.39 7.90155C17.3836 7.89521 17.3888 7.89002 17.4015 7.89002C17.4142 7.89002 17.4194 7.89521 17.413 7.90155ZM20.8424 8.31263C20.8757 8.33457 20.9177 8.37878 20.9358 8.41089L20.9686 8.46927L20.9185 8.42383C20.7325 8.25527 20.5536 8.36096 20.6532 8.58055L20.688 8.65726L20.651 8.62378C20.4265 8.42078 20.5938 8.14881 20.8424 8.31263ZM20.9274 8.59819C21.0106 8.64066 21.0845 8.72701 21.0845 8.78184C21.0845 8.86681 20.9771 8.80461 20.8919 8.67027C20.8183 8.55418 20.8229 8.54488 20.9274 8.59819ZM11.1018 8.90443C11.0955 8.91076 11.0903 8.90557 11.0903 8.8929C11.0903 8.88022 11.0955 8.87504 11.1018 8.88136C11.1081 8.88771 11.1081 8.89808 11.1018 8.90443ZM11.4346 9.49409C11.7091 9.89389 12.1674 10.3709 12.7762 10.8903C12.9759 11.0607 13.1432 11.2045 13.1479 11.2099C13.1527 11.2153 13.211 11.2651 13.2776 11.3207C14.7802 12.5742 15.4179 13.6968 15.4594 15.1609C15.4805 15.91 15.3073 16.5118 14.8907 17.1364C14.8257 17.2339 14.77 17.3136 14.7669 17.3136C14.7638 17.3136 14.7983 17.2214 14.8435 17.1087C15.4348 15.6341 15.1623 13.9789 14.1088 12.6452C13.8004 12.2547 13.645 12.0891 12.7393 11.185C11.7293 10.1769 11.4124 9.76685 11.1885 9.1782C11.0909 8.92157 11.1003 8.90682 11.2188 9.13098C11.2805 9.24767 11.3776 9.41107 11.4346 9.49409ZM9.81075 9.39975C9.81075 9.49409 10.0729 9.90271 10.3719 10.2744C10.4817 10.4109 10.5716 10.5263 10.5716 10.5309C10.5716 10.545 10.3437 10.3364 10.2239 10.2127C10.0775 10.0614 9.96033 9.91742 9.85628 9.76092C9.81077 9.69243 9.76401 9.63641 9.75241 9.63641C9.6797 9.63641 9.31398 9.92558 9.09751 10.1542L8.94113 10.3194L9.05174 10.1811C9.36229 9.79284 9.81075 9.33115 9.81075 9.39975ZM9.09606 9.87273C9.08971 9.87906 9.08453 9.87387 9.08453 9.86119C9.08453 9.84852 9.08971 9.84333 9.09606 9.84966C9.10239 9.85601 9.10239 9.86638 9.09606 9.87273ZM13.3641 10.0496L13.4332 10.063L13.3641 10.076C13.1098 10.1235 12.9174 10.1973 12.7484 10.312C12.6447 10.3824 12.6417 10.3833 12.6768 10.3341C12.835 10.1118 13.1065 9.9994 13.3641 10.0496ZM8.9462 10.3357C8.9462 10.3399 8.93721 10.3489 8.92623 10.3556C8.91386 10.3633 8.91096 10.3604 8.91862 10.348C8.93093 10.3281 8.9462 10.3213 8.9462 10.3357ZM14.4857 10.7221C14.4903 10.7296 14.4261 10.745 14.3429 10.7563C14.0707 10.7934 13.7332 10.9107 13.5752 11.0232L13.5211 11.0618L13.5498 11.0209C13.6304 10.9057 13.842 10.7762 14.0211 10.7325C14.1179 10.7089 14.4726 10.7009 14.4857 10.7221ZM15.3525 11.3121L15.4563 11.324L15.3525 11.337C14.9026 11.3932 14.619 11.4689 14.338 11.608L14.2286 11.6622L14.3064 11.5923C14.551 11.3727 14.9505 11.2657 15.3525 11.3121ZM16.5715 12.0734L16.6493 12.0856L16.5715 12.0968C16.5287 12.1029 16.3982 12.1201 16.2814 12.1349C15.878 12.1863 15.4618 12.3127 15.1407 12.4815C14.983 12.5644 14.966 12.5617 15.0629 12.4691C15.4225 12.1255 15.9775 11.9799 16.5715 12.0734ZM17.8588 13.4166C17.8776 13.4237 17.6823 13.4801 17.3559 13.5619C16.6644 13.7349 15.9205 13.9555 15.7675 14.0328C15.7072 14.0633 15.8066 13.9661 15.9411 13.863C16.2636 13.6159 16.6575 13.4608 17.0989 13.4073C17.2446 13.3896 17.8065 13.3965 17.8588 13.4166ZM18.2401 15.423C17.5628 16.0282 16.8256 16.3049 16.0629 16.2404C15.9385 16.2298 15.8347 16.2193 15.8323 16.2169C15.8299 16.2146 15.9699 16.1717 16.1435 16.1217C17.2207 15.8114 17.9077 15.5715 18.2401 15.3895C18.3169 15.3475 18.3169 15.3544 18.2401 15.423ZM13.7358 18.5732V18.8126L13.6537 18.7724C13.4535 18.6744 12.7514 18.6522 11.622 18.7082L11.4015 18.7191V19.0738V19.4286L11.7628 19.4178C12.1378 19.4065 12.2673 19.381 12.3916 19.294C12.4124 19.2794 12.4354 19.2675 12.4428 19.2675C12.4502 19.2675 12.4563 19.4061 12.4563 19.5756V19.8837L12.3321 19.822L12.208 19.7603L11.9128 19.7546C11.7505 19.7515 11.569 19.754 11.5096 19.7603L11.4015 19.7717L11.4015 20.1291L11.4014 20.4865L11.5441 20.4819C11.6226 20.4794 12.0681 20.4704 12.5341 20.462C13.4457 20.4455 13.4601 20.444 13.6537 20.346L13.7358 20.3044V20.5467V20.7891L13.3424 20.7895C12.9724 20.79 12.1328 20.8066 11.0918 20.8341L10.635 20.8461L10.6806 20.7864C10.7908 20.6419 10.7872 20.6772 10.7929 19.6863C10.7985 18.7027 10.7953 18.6616 10.7004 18.4917C10.6768 18.4495 10.6603 18.4122 10.6637 18.4088C10.6768 18.3957 12.5494 18.3482 13.5067 18.3366L13.7358 18.3338V18.5732ZM16.6407 18.3695C17.1576 18.4127 17.2027 18.4743 17.2027 19.1378C17.2027 19.913 17.2254 19.9 15.9145 19.8761L15.2488 19.864L15.2499 19.7817C15.2527 19.568 15.3641 19.5213 15.8367 19.5357C16.5525 19.5574 16.5975 19.5328 16.5975 19.1192C16.5975 18.6893 16.5737 18.68 15.4772 18.6798L14.8583 18.6796L14.8633 19.6004L14.8684 20.5211L14.9167 20.6244C14.9433 20.6812 14.9776 20.7415 14.9929 20.7584C15.0195 20.7877 15.0006 20.7891 14.5663 20.7891H14.112L14.1406 20.7502C14.2663 20.5793 14.275 20.4927 14.2675 19.4814C14.2606 18.5572 14.2609 18.5608 14.1671 18.4128L14.1137 18.3287L15.2778 18.3408C15.918 18.3475 16.5313 18.3604 16.6407 18.3695ZM18.413 18.4297C18.7078 18.4441 19.2019 18.4711 19.511 18.4898C19.8201 18.5086 20.1021 18.5239 20.1378 18.5239L20.2026 18.524V18.7661C20.2026 18.8992 20.1986 19.0081 20.1936 19.0081C20.1887 19.0081 20.1547 18.9883 20.1181 18.9641C19.9475 18.8512 19.9111 18.8453 19.1133 18.8011C18.7757 18.7824 18.4392 18.7632 18.3655 18.7585L18.2315 18.7499L18.2318 19.696C18.2323 20.7331 18.2312 20.7215 18.3392 20.8366C18.393 20.8938 18.3959 20.8936 17.9157 20.8721L17.4722 20.8522L17.5308 20.7724C17.6273 20.6408 17.6283 20.6286 17.6227 19.5528C17.6171 18.4544 17.6231 18.508 17.4957 18.4275L17.4274 18.3842L17.6522 18.3939C17.7759 18.3993 18.1182 18.4154 18.413 18.4297ZM10.2282 18.5456L10.1652 18.671V19.6404V20.6097L10.2265 20.7332L10.2878 20.8567L10.2006 20.8657C10.1526 20.8706 10.0044 20.879 9.87127 20.8842C9.73813 20.8895 9.57084 20.8982 9.49951 20.9035L9.36983 20.9132L9.42604 20.8589C9.53988 20.749 9.54218 20.7378 9.54817 20.2646L9.5536 19.8351L9.44442 19.8458C9.34918 19.855 7.85503 19.9591 7.81632 19.9591C7.80828 19.9591 7.80444 20.1362 7.80779 20.3525C7.81431 20.7731 7.82469 20.8235 7.93619 20.975C7.96376 21.0124 7.96331 21.0139 7.92381 21.014C7.90125 21.0141 7.7194 21.0296 7.51969 21.0485C7.05492 21.0924 7.04763 21.0924 7.08392 21.0523C7.09922 21.0354 7.13349 20.9751 7.16009 20.9183L7.20845 20.8151V19.864C7.20845 18.8243 7.21137 18.8572 7.10524 18.7017C7.06544 18.6433 7.06397 18.636 7.09136 18.6323C7.19294 18.6187 7.93249 18.5593 7.93753 18.5643C7.94088 18.5677 7.92093 18.6205 7.89319 18.6816C7.82137 18.84 7.80499 18.9559 7.80499 19.3053V19.6133L7.88712 19.6133C7.93229 19.6133 8.30384 19.59 8.71277 19.5615C9.1217 19.5329 9.47822 19.5096 9.50504 19.5096L9.5538 19.5096L9.54827 19.1335L9.54274 18.7574L9.48035 18.6061L9.41795 18.4548L9.52358 18.4525C9.58166 18.4512 9.72256 18.4448 9.83669 18.4382C9.95081 18.4317 10.0998 18.4249 10.1677 18.4233L10.2912 18.4202L10.2282 18.5456ZM21.0499 18.6022C21.5175 18.6399 21.4779 18.6209 21.4001 18.7707L21.3352 18.8957V19.8813V20.8669L21.3761 20.9447C21.3986 20.9875 21.4291 21.0362 21.4437 21.0529C21.4899 21.1055 21.4579 21.1067 21.0371 21.0684C20.8111 21.0478 20.6123 21.0311 20.5952 21.0311C20.569 21.0312 20.5723 21.021 20.6161 20.9663C20.7221 20.8342 20.7214 20.8419 20.7214 19.8127C20.7214 18.7996 20.7201 18.7837 20.6275 18.6437C20.5706 18.5577 20.5709 18.5566 20.6479 18.5666C20.6836 18.5712 20.8645 18.5872 21.0499 18.6022ZM6.69837 18.913C6.69837 19.0414 6.69254 19.1465 6.6854 19.1465C6.67826 19.1465 6.62963 19.1302 6.57733 19.1103C6.38201 19.0359 6.1464 19.0541 4.79635 19.2476L4.35543 19.3107L4.35073 19.6553C4.34816 19.8448 4.35251 20.0064 4.36043 20.0143C4.36833 20.0222 4.53268 20.0051 4.72563 19.9762C5.08166 19.923 5.18015 19.8925 5.32944 19.7893C5.35482 19.7717 5.38534 19.7517 5.39722 19.7448C5.41418 19.735 5.41883 19.8012 5.41883 20.0523V20.3722L5.32378 20.3287C5.18155 20.2636 5.08634 20.2609 4.73584 20.3125C4.29943 20.3766 4.34679 20.325 4.34679 20.7359C4.34679 20.9257 4.35288 21.0848 4.36033 21.0894C4.36778 21.094 4.5798 21.0678 4.83151 21.0313C5.08321 20.9947 5.50701 20.9366 5.7733 20.9021C6.32153 20.8313 6.39759 20.8138 6.57301 20.7182L6.69837 20.6499V20.8894V21.1289L6.31364 21.1762C5.8149 21.2374 4.61444 21.4079 4.05419 21.497C3.59932 21.5694 3.57983 21.5705 3.62442 21.5198C3.6391 21.5031 3.66953 21.4544 3.69203 21.4116L3.73296 21.3338L3.73827 20.3655C3.74395 19.3256 3.74389 19.3247 3.65383 19.177L3.6039 19.0951L3.64249 19.0865C3.88581 19.0323 6.44061 18.6851 6.62488 18.6812L6.69837 18.6796V18.913ZM23.073 18.817C23.5245 18.8758 23.755 18.9077 24.4649 19.0095C25.1034 19.1011 25.0388 19.0818 24.9744 19.1618C24.8726 19.2886 24.8712 19.3039 24.8712 20.3136C24.8712 21.3157 24.8714 21.3178 24.9758 21.4947C25.0243 21.5769 25.0396 21.5763 24.6088 21.5078C24.396 21.4739 24.205 21.4462 24.1844 21.4462C24.1295 21.4462 24.1208 21.4172 24.1605 21.3668C24.2642 21.2348 24.266 21.2153 24.266 20.2279V19.3221L24.2185 19.3122C24.0351 19.2741 22.9837 19.1466 22.8519 19.1465C22.5587 19.1464 22.5283 19.1829 22.5283 19.5355C22.5283 19.9259 22.5625 19.9487 23.2943 20.045C23.7264 20.1019 23.7687 20.1171 23.8426 20.2432C23.8868 20.3187 23.903 20.4606 23.8673 20.4606C23.8572 20.4606 23.6724 20.436 23.4566 20.406C22.9641 20.3374 22.6848 20.3303 22.6117 20.3844C22.4764 20.4846 22.4834 20.9375 22.6237 21.1587L22.6772 21.2429L22.6027 21.2325C22.5618 21.2268 22.3766 21.206 22.1911 21.1863C21.7257 21.1368 21.7641 21.1516 21.8351 21.0483C21.9135 20.9344 21.9317 20.8371 21.9317 20.5329C21.9317 20.2433 21.9482 20.1892 22.0581 20.1165L22.1209 20.075L22.0613 20.0301C21.9416 19.9398 21.9317 19.8949 21.9319 19.4393C21.932 18.6951 21.9717 18.6735 23.073 18.817Z" fill="#F48222"/>
</svg>
