<svg width="116" height="24" viewBox="0 0 116 24" fill="none" xmlns="http://www.w3.org/2000/svg">
<path fill-rule="evenodd" clip-rule="evenodd" d="M10.627 0.168582C4.06951 1.06433 -0.0238853 5.6567 0.000104876 12.091C0.0250515 18.8108 4.62989 23.4116 11.8108 23.8915C19.6642 24.4164 25.3054 20.1854 26.0217 13.2332C26.8837 4.86704 19.861 -1.09269 10.627 0.168582ZM107.944 0.165311C100.067 1.44612 95.6723 8.60897 98.1566 16.1187C100.307 22.6179 108.454 25.834 115.382 22.9184L115.999 22.6587L115.999 18.97C116 16.9412 115.98 15.2812 115.955 15.2812C115.931 15.2812 115.743 15.4102 115.537 15.5679C113.17 17.3833 109.434 17.496 107.38 15.8139C104.895 13.7781 105.512 8.88189 108.428 7.49325C110.576 6.47078 113.561 6.88017 115.462 8.45767L116 8.90423V5.24117V1.5782L115.263 1.21515C113.246 0.222177 110.244 -0.208587 107.944 0.165311ZM29.8061 0.94501C29.761 1.21347 28.1678 12.5776 27.254 19.1494C26.9673 21.2111 26.7144 22.979 26.6919 23.0781L26.651 23.2583L30.896 23.2377L35.1409 23.217L35.6717 17.2751C35.9635 14.0071 36.206 11.3243 36.2105 11.3133C36.2523 11.2111 36.5563 11.3315 36.6134 11.4729C36.6534 11.5716 37.3546 13.9672 38.1718 16.7966C38.9889 19.626 39.7468 22.2374 39.856 22.5998L40.0546 23.2586L43.3369 23.2378L46.6193 23.217L47.8738 18.9102C48.5638 16.5414 49.3404 13.8676 49.5995 12.9683C50.0083 11.5497 50.0928 11.3299 50.2384 11.3078C50.4771 11.2715 50.4405 10.9847 50.9605 16.9561C51.2222 19.9609 51.458 22.6078 51.4846 22.8382L51.5329 23.2569H55.7562H59.9796L59.9312 22.9179C59.7984 21.9861 57.9831 9.01963 57.4413 5.13246L56.8215 0.68636L51.9554 0.68604L47.0893 0.685802L45.6366 6.00955C43.312 14.5291 43.4968 13.9294 43.2437 13.7728C43.1167 13.6943 43.1173 13.6966 41.154 6.50802C40.3212 3.45933 39.6209 0.902101 39.5977 0.825375C39.558 0.694415 39.2551 0.685802 34.7026 0.685802H29.8498L29.8061 0.94501ZM61.5638 11.9713V23.2569H65.9474H70.331V11.9713V0.685802H65.9474H61.5638V11.9713ZM73.519 11.9713V23.2569H77.8628H82.2065V18.9956C82.2065 14.526 82.2164 14.3969 82.5475 14.5294C82.6011 14.5507 83.7208 16.5227 85.0359 18.9114L87.427 23.2545L92.4329 23.2557C96.4167 23.2566 97.4267 23.2365 97.3793 23.1572C97.3466 23.1024 95.5995 20.4743 93.497 17.3173C91.3945 14.1601 89.658 11.515 89.6383 11.4392C89.6115 11.3368 96.0105 2.24081 97.1336 0.78486C97.1956 0.704465 96.2651 0.688593 92.4497 0.705103L87.6884 0.72568L85.1882 4.79326C83.813 7.03043 82.6363 8.89465 82.5735 8.93597C82.2164 9.17029 82.2065 9.05696 82.2065 4.74365V0.685802H77.8628H73.519V11.9713ZM14.0269 7.03003C18.7262 8.00139 19.1675 15.1847 14.625 16.7656C11.3413 17.9083 8.27696 15.59 8.28812 11.9713C8.29872 8.53822 10.8201 6.36718 14.0269 7.03003Z" fill="#1C566C"/>
</svg>
