<svg width="744" height="154" viewBox="0 0 744 154" fill="none" xmlns="http://www.w3.org/2000/svg">
<path fill-rule="evenodd" clip-rule="evenodd" d="M54.0638 1.13228C116.08 -7.33911 163.244 32.6904 157.455 88.8829C154.241 120.087 136.255 143.128 108.937 153.93H31.4223C18.6642 148.974 8.03869 141.454 0 131.821V29.3249C12.3919 14.2883 30.9483 4.29009 54.0638 1.13228ZM76.897 47.2185C55.36 42.7664 38.4266 57.3487 38.3554 80.4078C38.2806 104.713 58.8608 120.285 80.9143 112.609C111.422 101.991 108.458 53.7428 76.897 47.2185Z" fill="#1C566C"/>
<path d="M215.757 4.60615C246.329 4.60615 248.517 4.65 248.517 4.65C248.672 5.16534 253.492 23.2353 259.085 43.7124C273.833 96.1 273.833 96.1 273.833 96.1C273.833 96.1 273.833 96.1 289.19 40.3641L298.946 4.60615L364.309 4.61019C367.948 30.7167 384.3 147.658 385.194 153.93H328.527L328.465 153.397C328.287 151.849 326.703 134.071 324.946 113.889C323.307 95.0667 321.625 75.95 321.625 75.95L296.375 153.93H251.011L226.042 75.95C226.042 75.95 224.225 94.0814 222.265 116.032L218.88 153.93H162.131C162.637 150.625 164.104 140.328 165.731 128.62C171.868 84.4798 183.165 4.60615 183.165 4.60615H215.757Z" fill="#1C566C"/>
<path d="M455.039 4.60615V153.93H396.158V4.60615H455.039Z" fill="#1C566C"/>
<path d="M534.796 4.60615V31.8618C534.796 54.5391 534.796 64.325 534.796 64.325C534.796 64.325 534.796 64.325 571.613 4.87407L603.59 4.73583C629.214 4.62494 635.464 4.73169 635.047 5.27167C627.505 15.0508 584.528 76.1457 584.708 76.8335C584.841 77.3432 596.504 95.1091 610.624 116.314C622.352 133.926 632.433 149.087 635.638 153.93H568.612C534.796 93.2583 534.796 91.8991 534.796 91.8991C534.796 91.8991 534.796 103.73 534.796 127.587V153.93H476.45V4.60615H534.796Z" fill="#1C566C"/>
<path d="M707.654 1.11058C718.734 -0.691426 732.247 0.289344 744 3.45122V49.0809C733.066 45.4391 720.69 45.6701 710.904 50.3296C691.316 59.6567 687.174 92.5433 703.865 106.217C713.883 114.424 729.895 116.508 744 112.361V153.93H685.576C665.267 145.291 648.893 129.351 641.918 108.264C625.233 57.8237 654.748 9.71335 707.654 1.11058Z" fill="#1C566C"/>
</svg>
