<svg width="77" height="77" viewBox="0 0 77 77" fill="none" xmlns="http://www.w3.org/2000/svg">
<path fill-rule="evenodd" clip-rule="evenodd" d="M42.5518 23.376L42.5879 23.3125L49.6074 27.3652L49.5703 27.4268L49.6338 27.3916L53.6865 34.4102L53.623 34.4473H53.6963V42.5527H53.623L53.6865 42.5889L49.6338 49.6084L49.5703 49.5713L49.6074 49.6348L42.5869 53.6875L42.5518 53.625V53.6973H34.4463V53.623L34.4102 53.6875L27.3896 49.6348L27.4258 49.5713L27.3633 49.6084L23.3105 42.5889L23.374 42.5527H23.3018V34.4473H23.375L23.3115 34.4102L27.3643 27.3916L27.4268 27.4268L27.3906 27.3652L34.4102 23.3125L34.4463 23.376V23.3027H42.5518V23.376ZM36.9805 38.9424H36.9834L42.3867 44.5791L45.0859 41.4854L40.7236 36.9365V28.3682H36.9805V38.9424Z" fill="#706E69"/>
<path fill-rule="evenodd" clip-rule="evenodd" d="M50.1514 8.31445L58.29 13.1104L65.3486 8.95312L77 29.5469L69.9424 33.7041V43.2949L77 47.4531L65.3486 68.0469L58.291 63.8887L50.1514 68.6836V77H26.8486V68.6836L18.708 63.8887L11.6514 68.0469L0 47.4531L7.05762 43.2949V33.7041L0 29.5469L11.6514 8.95312L18.709 13.1104L26.8486 8.31445V0H50.1514V8.31445ZM32.9023 17.9736L23.5225 23.3887L23.3887 23.5215L17.9736 32.9014L17.9238 33.085V43.915L17.9736 44.0977L23.3887 53.4775L23.5225 53.6113L32.9023 59.0264L33.085 59.0752H43.915L44.0977 59.0264L53.4775 53.6113L53.6113 53.4775L59.0264 44.0977L59.0762 43.915V33.085L59.0264 32.9014L53.6113 23.5215L53.4775 23.3887L44.0977 17.9736L43.915 17.9238H33.085L32.9023 17.9736Z" fill="#706E69"/>
</svg>
