<svg width="88" height="24" viewBox="0 0 88 24" fill="none" xmlns="http://www.w3.org/2000/svg">
<path d="M9.27918 11.98C9.28654 9.55663 11.0355 8.02406 13.2601 8.49196C16.52 9.17771 16.8261 14.248 13.6751 15.364C11.3972 16.1706 9.27157 14.5342 9.27918 11.98Z" fill="#1C566C"/>
<path fill-rule="evenodd" clip-rule="evenodd" d="M87.5294 24H0V0H87.5294V24ZM83.4885 4.38695C82.0897 3.68607 80.0066 3.38199 78.4115 3.64591C72.9469 4.55008 69.8982 9.60671 71.6216 14.9076C73.1132 19.4951 78.7652 21.7648 83.5712 19.7068L83.9993 19.5241V16.9198C83.9995 15.4878 83.986 14.3162 83.969 14.3162C83.9518 14.3163 83.8213 14.4076 83.6788 14.5188C82.0365 15.8002 79.4451 15.8792 78.0207 14.6919C76.2966 13.2549 76.7241 9.79901 78.7472 8.8187C80.237 8.09696 82.3086 8.38624 83.6271 9.49977L84 9.8148V4.64338L83.4885 4.38695ZM21.5811 12.8706C22.1791 6.96513 17.3069 2.75836 10.9012 3.64867C6.3524 4.28107 3.51282 7.52244 3.52941 12.0641C3.54672 16.8075 6.74143 20.0553 11.7229 20.3941C17.1708 20.7645 21.0842 17.7779 21.5811 12.8706ZM24.2061 4.19669C24.174 4.39245 23.0695 12.4096 22.4359 17.0466C22.237 18.502 22.0613 19.7499 22.0457 19.8199L22.0175 19.9474L27.9072 19.9177L28.2753 15.7238C28.4771 13.4241 28.6447 11.5347 28.6489 11.5154C28.6779 11.4432 28.8891 11.528 28.9288 11.6278C28.9565 11.6975 29.4428 13.3888 30.0097 15.386C30.5764 17.3829 31.1022 19.226 31.1781 19.4821L31.3159 19.9474L35.8697 19.9177L36.7403 16.8778C37.2189 15.206 37.7572 13.3189 37.937 12.6838C38.2205 11.6828 38.2793 11.527 38.3803 11.5113C38.5459 11.4856 38.5207 11.2833 38.8814 15.4984C39.0629 17.6186 39.2262 19.4863 39.2447 19.6503L39.2785 19.946H45.1379L45.1041 19.7068C45.012 19.049 43.7532 9.89678 43.3773 7.15257L42.9472 4.01402L36.1958 4.01333L35.188 7.7716C33.5754 13.7852 33.7036 13.3617 33.528 13.2511C33.4401 13.1958 33.4398 13.1951 32.0784 8.12316C31.5007 5.97121 31.0149 4.16606 30.9989 4.1119C30.9712 4.01956 30.7599 4.01333 27.6032 4.01333H24.2364L24.2061 4.19669ZM46.2367 19.946H52.3187V4.01333H46.2367V19.946ZM54.5308 19.946H60.557V16.9377C60.557 13.7839 60.5639 13.692 60.7934 13.7854C60.8306 13.8005 61.6073 15.1924 62.5195 16.8784L64.1788 19.9446L67.651 19.9453C70.4145 19.946 71.1154 19.9317 71.0825 19.8757C71.0592 19.8362 69.8475 17.9815 68.3893 15.7534C66.9322 13.527 65.7285 11.6612 65.7125 11.6043C65.694 11.532 70.1329 5.11167 70.9122 4.08364C70.9552 4.02689 70.3095 4.01546 67.6627 4.02711L64.3601 4.04159L62.6257 6.91268C61.6717 8.49186 60.855 9.80769 60.8114 9.83686C60.5637 10.0022 60.557 9.92206 60.557 6.87753V4.01333H54.5308V19.946Z" fill="#1C566C"/>
</svg>
