<svg width="77" height="77" viewBox="0 0 77 77" fill="none" xmlns="http://www.w3.org/2000/svg">
<path fill-rule="evenodd" clip-rule="evenodd" d="M12.0337 77L0 64.9637L26.7415 38.2163L38.7752 50.2526L12.0337 77ZM9.35953 63.6263L13.3708 67.6384L30.7527 50.2526L26.7415 46.2405L9.35953 63.6263Z" fill="#706E69"/>
<path d="M32.8687 20.0514L31.4213 21.4991L55.4886 45.5718L56.8583 44.2018H67.3343L75.5774 52.4467V62.925L73.5391 64.9637L64.8482 56.2708L60.1684 56.9394L59.4999 61.6202L68.1908 70.3131L66.1526 72.3519H55.6767L47.4335 64.1069V53.6287L48.8032 52.2587L24.7359 28.186L23.4439 29.4783H12.9679L4.72481 21.2334V10.7551L6.68538 8.79412L15.3764 17.487L20.0561 16.8183L20.7247 12.1375L12.0337 3.44464L14.1496 1.32823H24.6256L32.8687 9.57317V20.0514Z" fill="#706E69"/>
<path d="M67.4492 21.426L64.1796 18.1557L50.1403 32.1981L44.792 26.8486L58.8313 12.8062L55.5787 9.55292L71.4323 0L77 5.56889L67.4492 21.426Z" fill="#706E69"/>
</svg>
