<svg width="116" height="116" viewBox="0 0 116 116" fill="none" xmlns="http://www.w3.org/2000/svg">
<mask id="path-1-inside-1_2658_25940" fill="white">
<path d="M0 0H116V116H0V0Z"/>
</mask>
<path d="M0 0V-2H-2V0H0ZM0 0H-2V7.25H0H2V0H0ZM0 21.75H-2V36.25H0H2V21.75H0ZM0 50.75H-2V65.25H0H2V50.75H0ZM0 79.75H-2V94.25H0H2V79.75H0ZM0 108.75H-2V116H0H2V108.75H0ZM116 0V-2H108.75V0V2H116V0ZM94.25 0V-2H79.75V0V2H94.25V0ZM65.25 0V-2H50.75V0V2H65.25V0ZM36.25 0V-2H21.75V0V2H36.25V0ZM7.25 0V-2H0V0V2H7.25V0ZM0 0V-4H-4V0H0ZM0 0H-4V7.25H0H4V0H0ZM0 21.75H-4V36.25H0H4V21.75H0ZM0 50.75H-4V65.25H0H4V50.75H0ZM0 79.75H-4V94.25H0H4V79.75H0ZM0 108.75H-4V116H0H4V108.75H0ZM116 0V-4H108.75V0V4H116V0ZM94.25 0V-4H79.75V0V4H94.25V0ZM65.25 0V-4H50.75V0V4H65.25V0ZM36.25 0V-4H21.75V0V4H36.25V0ZM7.25 0V-4H0V0V4H7.25V0Z" fill="#B2C7CF" mask="url(#path-1-inside-1_2658_25940)"/>
</svg>
