<svg width="84" height="84" viewBox="0 0 84 84" fill="none" xmlns="http://www.w3.org/2000/svg">
<mask id="path-1-inside-1_2658_25939" fill="white">
<path d="M0 0H84V84H0V0Z"/>
</mask>
<path d="M0 0V-2H-2V0H0ZM0 0H-2V5.25H0H2V0H0ZM0 15.75H-2V26.25H0H2V15.75H0ZM0 36.75H-2V47.25H0H2V36.75H0ZM0 57.75H-2V68.25H0H2V57.75H0ZM0 78.75H-2V84H0H2V78.75H0ZM84 0V-2H78.75V0V2H84V0ZM68.25 0V-2H57.75V0V2H68.25V0ZM47.25 0V-2H36.75V0V2H47.25V0ZM26.25 0V-2H15.75V0V2H26.25V0ZM5.25 0V-2H0V0V2H5.25V0ZM0 0V-4H-4V0H0ZM0 0H-4V5.25H0H4V0H0ZM0 15.75H-4V26.25H0H4V15.75H0ZM0 36.75H-4V47.25H0H4V36.75H0ZM0 57.75H-4V68.25H0H4V57.75H0ZM0 78.75H-4V84H0H4V78.75H0ZM84 0V-4H78.75V0V4H84V0ZM68.25 0V-4H57.75V0V4H68.25V0ZM47.25 0V-4H36.75V0V4H47.25V0ZM26.25 0V-4H15.75V0V4H26.25V0ZM5.25 0V-4H0V0V4H5.25V0Z" fill="#B2C7CF" mask="url(#path-1-inside-1_2658_25939)"/>
</svg>
