<svg width="66" height="66" viewBox="0 0 66 66" fill="none" xmlns="http://www.w3.org/2000/svg">
<path fill-rule="evenodd" clip-rule="evenodd" d="M39.3889 10.577C39.2504 10.6575 38.9102 10.6815 38.5888 10.6332C37.9037 10.5304 37.4739 10.7096 37.181 11.2197C36.9488 11.6243 36.833 11.6365 35.3578 11.4107C34.904 11.3412 34.644 11.6527 34.5525 12.3756C34.4638 13.0781 34.2843 13.2948 33.9595 13.092C33.6521 12.8999 31.8655 13.0197 31.4864 13.2577C31.327 13.3577 30.9986 13.4396 30.7566 13.4396C29.9993 13.4396 29.2671 14.6238 28.9318 16.3909C28.8049 17.0604 28.7286 17.2239 28.572 17.163C28.1338 16.993 27.1631 16.9447 27.0743 17.0884C27.0243 17.1693 26.7586 17.2354 26.4836 17.2354C26.199 17.2354 25.9137 17.32 25.8209 17.4317C25.5939 17.7052 25.4608 17.6772 25.3561 17.3336C25.1054 16.5108 24.3874 16.3451 23.7071 16.9528C23.315 17.3033 23.2693 17.3139 22.9147 17.1371C22.7079 17.034 22.4481 16.9842 22.3375 17.0266C22.227 17.0691 22.0484 17.0156 21.9405 16.9078C21.6743 16.6416 21.2906 16.6612 21.0836 16.9516C20.7922 17.3603 18.7121 17.2401 18.2955 16.7906C18.0129 16.4855 17.8968 16.4573 16.9519 16.4636C15.7268 16.4715 15.0036 16.3602 14.5884 16.0996C14.3774 15.967 13.9599 15.9164 13.2141 15.9328C12.6249 15.9459 11.8189 15.9146 11.423 15.8634C10.8451 15.7886 10.5666 15.8244 10.0111 16.0447C9.63044 16.1956 9.07088 16.3201 8.76761 16.3211C8.09759 16.3236 8.04432 16.3581 7.52272 17.1247L7.10832 17.7338L6.30872 17.7155C5.65702 17.7006 5.47508 17.7438 5.32469 17.9494C5.11081 18.2418 5.07691 19.1442 5.27521 19.2667C5.3523 19.3143 5.37508 19.5365 5.32848 19.7853C5.22757 20.3232 5.50296 20.9425 6.19065 21.7238C6.54995 22.1319 6.65728 22.3447 6.57194 22.4796C6.37377 22.7929 6.43254 23.106 6.79157 23.6486C7.18044 24.2361 7.13162 24.5652 6.65571 24.5652C5.96304 24.5652 4.9633 25.5617 2.93438 28.2741C1.85545 29.7164 1.79105 29.894 2.0565 30.6932C2.28542 31.3828 2.21226 31.7624 1.787 32.0914C1.69393 32.1634 1.43242 32.6935 1.20571 33.2694C0.969458 33.8694 0.631631 34.4671 0.414485 34.6692C-0.0800168 35.1292 -0.150697 36.3673 0.303621 36.6105C0.451003 36.6893 0.623778 36.8909 0.68739 37.0583C0.751003 37.2257 0.983725 37.4426 1.20467 37.5404C1.42548 37.6381 1.60624 37.783 1.60624 37.8622C1.60624 38.0905 2.05898 38.4396 2.35493 38.4396C2.52849 38.4396 2.65231 38.5485 2.70152 38.7444C2.76304 38.9897 3.24459 39.3558 3.50571 39.3558C3.53582 39.3558 3.76369 39.1774 4.01199 38.9593L4.46343 38.563L4.99 38.8375C5.39262 39.0473 5.57626 39.08 5.76997 38.9763C5.96278 38.8732 6.26421 38.9233 7.03005 39.186C8.00871 39.5216 8.05505 39.5254 8.68633 39.3235L9.33568 39.1159L9.96918 39.7593C10.8058 40.6093 11.1379 40.6161 11.8883 39.7989C12.4838 39.1502 12.959 38.9803 14.2086 38.9689C15.3553 38.9584 16.3968 38.3203 16.3968 37.6282C16.3968 37.3161 16.4628 37.2418 16.7999 37.1744C17.0215 37.13 17.2714 36.9843 17.3549 36.8504C17.4385 36.7167 17.607 36.6071 17.7295 36.6071C17.8519 36.6071 17.9884 36.5482 18.0329 36.4762C18.0774 36.4042 18.4261 36.3453 18.8076 36.3453C19.3392 36.3453 19.619 36.2656 20.0031 36.005C20.7515 35.4972 21.6215 35.6938 21.9032 36.4345C21.9662 36.6003 22.1758 36.7709 22.3794 36.8219C22.5794 36.8722 22.9731 37.0799 23.2544 37.2837C23.8898 37.744 24.0264 37.7453 24.3783 37.2943C24.5787 37.0375 24.68 36.9849 24.7316 37.1106C24.904 37.5304 25.5973 38.1646 25.9254 38.2024C26.1612 38.2296 26.2637 38.3087 26.233 38.4396C26.2078 38.5476 26.1553 38.9757 26.1164 39.391L26.0459 40.1462L26.8745 40.9617C27.3303 41.4102 27.691 41.8438 27.6761 41.925C27.5853 42.4223 28.1665 43.2458 28.8012 43.5189C29.4477 43.797 29.7062 44.2059 29.5283 44.6694C29.3926 45.0231 28.0058 45.1892 27.5914 44.9015C26.7434 44.3127 25.4245 45.8343 25.9346 46.813C26.2417 47.402 26.1579 47.7757 25.5918 48.3423C25.4298 48.5045 25.2973 48.7594 25.2973 48.9089C25.2973 49.0584 25.2067 49.2155 25.0961 49.258C24.8515 49.3519 24.512 49.9788 24.512 50.3369C24.512 50.4869 24.3673 50.6707 24.1723 50.7687C22.7765 51.4703 23.6726 52.9104 25.6693 53.1745C26.3152 53.26 26.3927 53.2407 26.6889 52.9213C26.8652 52.7312 27.0909 52.5757 27.1905 52.5757C27.29 52.5757 27.538 52.4365 27.7414 52.2664C28.4315 51.6895 29.0931 51.7106 29.0931 52.3096C29.0931 52.6897 29.5503 53.0131 29.8562 52.8494C30.2702 52.6278 30.5952 51.6338 30.4189 51.1282C30.2862 50.7473 30.307 50.6838 30.6795 50.3359C30.9233 50.108 31.0545 49.8796 31.0091 49.7614C30.9574 49.6266 31.075 49.5063 31.3855 49.3766C31.9578 49.1375 33.7364 46.4424 33.4868 46.1927C33.4456 46.1516 33.5102 46.0092 33.6303 45.8765C33.7504 45.7437 33.8478 45.4444 33.8468 45.2114C33.8441 44.6687 33.9677 44.5958 34.8937 44.5934C35.6572 44.5914 36.6753 45.156 36.6824 45.5855C36.6873 45.8859 37.1797 46.1558 37.8436 46.2219C38.2231 46.2597 38.6208 46.3779 38.7275 46.4846C39.2041 46.9612 40.6629 47.0009 40.9445 46.5452C40.9858 46.4784 41.2151 46.4238 41.4539 46.4238C41.6928 46.4238 42.0871 46.3409 42.33 46.2393C42.7323 46.0712 42.7998 46.0775 43.0875 46.3105C43.2611 46.4511 43.48 46.5367 43.5738 46.5007C43.6677 46.4647 43.7767 46.4876 43.8162 46.5515C43.92 46.7195 43.3563 47.0783 42.9884 47.0783C42.6968 47.0783 42.5148 47.2211 41.2255 48.4622C40.9957 48.6833 40.6198 48.9941 40.3901 49.1528C39.3051 49.9019 40.2291 51.1276 41.5689 50.7164C41.9723 50.5927 42.061 50.6215 42.6435 51.0662C43.2113 51.4996 43.3358 51.5423 43.8198 51.4697C44.4806 51.3706 44.7736 51.7516 44.4711 52.3169C44.3774 52.4919 44.3331 52.8241 44.3717 53.0623C44.4168 53.3397 44.388 53.4919 44.2906 53.4919C43.6352 53.4919 43.9036 54.5698 44.6177 54.8055C44.8786 54.8915 45.2097 55.0797 45.3536 55.2236C46.1029 55.9729 47.5128 55.2882 48.6545 53.6208C49.4411 52.4719 49.9823 52.0932 50.5537 52.2924C51.0001 52.4481 51.6062 52.0871 51.6062 51.6655C51.6062 51.5352 51.8123 51.2715 52.0643 51.0793C52.3162 50.8872 52.5224 50.6151 52.5224 50.4748C52.5224 50.149 52.7212 50.1511 53.1411 50.4814C53.5367 50.7926 53.8213 50.8119 54.1662 50.5511C54.3059 50.4453 54.5784 50.357 54.7717 50.3547C55.6898 50.3439 56.111 49.8851 56.075 48.9352C56.0584 48.495 56.1292 48.2731 56.3821 47.9724C56.7411 47.5458 56.7975 47.2173 56.5538 46.9736C56.3181 46.7379 54.1699 46.7626 53.9702 47.0033C53.8673 47.1271 53.6694 47.1664 53.3825 47.1199C52.9215 47.0451 52.5224 47.3996 52.5224 47.8839C52.5224 48.1961 52.0575 48.3122 51.7289 48.0821C51.2066 47.7161 49.5077 45.5712 49.6564 45.4653C49.685 45.4451 49.8757 45.3235 50.0802 45.1953C50.4377 44.9714 51.0826 43.7754 51.0826 43.3365C51.0826 43.2265 51.3461 42.8965 51.6682 42.6034C51.9903 42.3102 52.2857 41.9698 52.3247 41.8466C52.4471 41.4614 52.9935 41.2468 53.3568 41.4413C53.77 41.6625 54.1228 41.4695 54.4094 40.8656C54.6619 40.3334 54.7521 40.3016 54.9789 40.6647C55.3607 41.2761 56.1404 40.924 56.2777 40.0782C56.3675 39.5244 56.7929 39.1799 57.4022 39.1676C57.7575 39.1604 57.8325 39.0858 58.0677 38.505C58.2133 38.1451 58.3882 37.8126 58.456 37.7663C58.7188 37.5866 59.6232 37.5185 59.7997 37.665C60.2258 38.0186 61.2804 36.987 60.9836 36.5067C60.9419 36.439 60.9747 36.2058 61.0568 35.9884C61.1847 35.6495 61.1679 35.5444 60.9391 35.2536C60.5297 34.7332 60.6789 34.3659 61.4989 33.8753C61.8891 33.6419 62.2181 33.3808 62.2302 33.2948C62.2423 33.2088 62.2569 32.965 62.2629 32.7528C62.2758 32.2909 62.5352 32.1892 63.7504 32.1699C65.4002 32.1438 65.8093 31.7682 65.7602 30.3249C65.739 29.7061 65.7802 29.2693 65.8646 29.2171C66.0705 29.0898 66.0339 28.5487 65.8067 28.3603C65.6982 28.2701 65.4567 27.9159 65.27 27.573C65.0834 27.2302 64.804 26.8908 64.6493 26.8188C64.3716 26.6896 64.3725 26.6862 64.7146 26.5511C65.5887 26.2061 65.756 24.9579 64.9283 24.9579C64.6379 24.9579 64.7165 24.4762 65.115 23.813C65.4124 23.3181 65.3462 22.7579 64.9476 22.3972C64.7542 22.2221 64.7106 22.0635 64.7696 21.7493C64.9126 20.9872 63.983 20.5751 63.4499 21.1642L63.2111 21.4279L62.927 21.1611C62.5732 20.8286 61.9646 20.6467 61.6192 20.7701C61.4325 20.8368 61.275 20.7752 61.0692 20.5546C60.6991 20.1582 60.4386 20.1646 60.0538 20.5799L59.7442 20.9138L59.3356 20.5145C58.8886 20.0776 58.7827 20.0477 58.4016 20.2518C58.2101 20.3541 58.0738 20.3378 57.8575 20.1863C57.4325 19.8885 56.7809 19.9266 56.5581 20.2624C56.2243 20.7649 55.6404 20.4954 54.942 19.5167C54.1372 18.3887 53.9094 18.3989 52.2644 19.6363C51.506 20.2069 51.2504 20.3357 51.0689 20.2385C50.9419 20.1706 50.7016 20.1132 50.535 20.1108C50.3682 20.1086 50.1174 20.0202 49.9778 19.9145C49.623 19.6463 48.9948 19.6764 48.5302 19.9841C47.7977 20.4693 47.3458 20.2032 47.3982 19.3172C47.4206 18.9363 47.3422 18.6896 47.0958 18.3667C46.913 18.1269 46.7632 17.7565 46.7632 17.5438C46.7632 17.0914 46.5571 16.8431 46.1808 16.842C46.0181 16.8414 45.8215 16.6812 45.6814 16.4352C45.4681 16.0604 45.4127 16.0363 44.9615 16.1217C43.9498 16.3129 42.9424 16.2104 42.7166 15.8933C42.324 15.3413 42.3005 14.8554 42.6511 14.5307C43.2215 14.002 42.9064 13.3378 41.8081 12.7536C41.5699 12.6269 41.4182 12.4637 41.4664 12.3858C41.5936 12.1798 41.2738 11.4964 41.011 11.413C40.8863 11.3734 40.7094 11.2013 40.618 11.0304C40.3532 10.5356 39.807 10.3341 39.3889 10.577Z" fill="#706E69"/>
</svg>
